# xmcd CD database file
#
# Track frame offsets:
#	150
#	24848
#	55865
#	77825
#	111573
#	125858
#	153298
#	184015
#	214638
#	252760
#	285363
#
# Disc length: 4239 seconds
#
# Revision: 2
# Processed by: cddbd v1.5.2PL0 Copyright (c) Steve Scherf et al.
# Submitted via: CD2WAV32(JP) R3.22
#
DISCID=91108d0b
DTITLE=Fried Pride - That's My Way
DYEAR=2004
DGENRE=Jazz
TTITLE0=That's My Way
TTITLE1=Ribbon In The Sky
TTITLE2=Every Road Leads To You
TTITLE3=Between The Sheets
TTITLE4=Magic Eyes
TTITLE5=Universality
TTITLE6=Unbreakable
TTITLE7=Go Away Little Boy
TTITLE8=Moonlight
TTITLE9=Blackout
TTITLE10=Imagine
EXTD=
EXTT0=
EXTT1=
EXTT2=
EXTT3=
EXTT4=
EXTT5=
EXTT6=
EXTT7=
EXTT8=
EXTT9=
EXTT10=
PLAYORDER=
